<?xml version="1.0" encoding="UTF-8"?>
<svg version="1.1" xmlns="http://www.w3.org/2000/svg" width="512" height="512">
<path d="M0 0 C10.43034658 6.85240227 17.4178214 15.58805262 23.36328125 26.42578125 C24.33708607 28.15597873 25.31089115 29.88617605 26.28471375 31.61636353 C27.2779948 33.38787989 28.26389649 35.16328619 29.24707031 36.94042969 C31.65251488 41.28728116 34.07969544 45.62178141 36.50683594 49.95654297 C37.66563835 52.02742027 38.82252563 54.09937033 39.97753906 56.17236328 C43.93712303 63.26689611 47.99677884 70.29631587 52.11328125 77.30078125 C57.79712972 86.97665702 63.28368559 96.75134378 68.71289062 106.57202148 C73.9047414 115.95900091 79.20017656 125.28210294 84.54345703 134.58349609 C87.71798948 140.11115191 90.88564781 145.64273981 94.05078125 151.17578125 C94.38967377 151.76810547 94.72856628 152.36042969 95.07772827 152.97070312 C100.49713696 162.44681401 105.84937366 171.95905139 111.171875 181.48999023 C116.77059288 191.50853879 122.46645968 201.46998265 128.17578125 211.42578125 C130.80256039 216.00809771 133.42786637 220.59125209 136.05078125 225.17578125 C136.38958313 225.76792419 136.72838501 226.36006714 137.07745361 226.97015381 C142.49694608 236.44645168 147.84927433 245.95887351 153.171875 255.48999023 C158.77059288 265.50853879 164.46645968 275.46998265 170.17578125 285.42578125 C172.80256039 290.00809771 175.42786637 294.59125209 178.05078125 299.17578125 C178.38958313 299.76792419 178.72838501 300.36006714 179.07745361 300.97015381 C184.49270313 310.43903265 189.84238893 319.94316289 195.15869141 329.46801758 C198.87579975 336.12229102 202.63516941 342.75064048 206.42578125 349.36328125 C207.39860322 351.06761375 208.37126272 352.772039 209.34375 354.4765625 C211.22644788 357.77500774 213.12764394 361.0618804 215.0390625 364.34375 C224.12185048 380.06383604 228.03033925 394.86139661 224.44921875 413.1328125 C223.53582799 416.02521658 222.47962469 418.6894256 221.17578125 421.42578125 C220.82515625 422.20695312 220.47453125 422.988125 220.11328125 423.79296875 C213.50195267 437.06153792 201.87582912 446.34350543 188.17578125 451.42578125 C182.85762859 452.93100926 178.26470247 453.6768262 172.69965076 453.68305016 C171.98857456 453.68655623 171.27749836 453.6900623 170.5448744 453.69367462 C168.17394594 453.70294181 165.80326564 453.69807752 163.43232727 453.69320679 C161.71051926 453.69694541 159.98871294 453.70154778 158.2669093 453.70693743 C153.5442047 453.71915665 148.82157099 453.71890823 144.09885418 453.71654868 C139.00189127 453.71614024 133.904951 453.7271823 128.80799866 453.73666382 C118.82507423 453.7532691 108.84217342 453.75877316 98.85923634 453.75988857 C90.74311589 453.76083931 82.62700322 453.76495089 74.51088524 453.77128983 C51.49291322 453.78890127 28.47495984 453.7981289 5.45698104 453.79662888 C4.21635552 453.79654897 2.97573 453.79646905 1.69750977 453.79638672 C0.45536684 453.79630496 -0.78677609 453.7962232 -2.06655971 453.79613896 C-22.19406431 453.79532618 -42.32149406 453.81446209 -62.44897702 453.84266345 C-83.12287526 453.87140149 -103.79673701 453.88520322 -124.47065574 453.8834759 C-136.07458744 453.8828123 -147.67844067 453.88829155 -159.28235435 453.909832 C-169.16286412 453.92805591 -179.04325985 453.93238118 -188.92377915 453.91881315 C-193.96236309 453.91228955 -199.00072833 453.91214444 -204.03929138 453.92951965 C-208.65782486 453.94528222 -213.27596682 453.94235425 -217.89449093 453.92495139 C-219.55934599 453.9218885 -221.2242305 453.92548692 -222.8890508 453.93667154 C-240.43121775 454.0466555 -254.6524411 449.79174677 -267.72265625 437.69140625 C-278.74150496 425.81235002 -283.52814997 411.05346617 -283.1015625 395.08203125 C-281.79682153 377.88150242 -272.32941186 363.96083727 -263.82421875 349.42578125 C-262.92074707 347.87479736 -262.92074707 347.87479736 -261.99902344 346.29248047 C-259.7026842 342.35066703 -257.40310095 338.41084362 -255.09179688 334.4777832 C-250.11218252 325.98720615 -245.33111715 317.39371568 -240.57250977 308.77783203 C-235.70926073 299.98471646 -230.74948518 291.2513692 -225.74914551 282.53588867 C-221.0124076 274.27851721 -216.33148827 265.99224826 -211.69921875 257.67578125 C-206.62820738 248.57631606 -201.42124383 239.56610916 -196.14404297 230.58496094 C-191.09750005 221.96466178 -186.25540686 213.23811109 -181.42993164 204.49267578 C-177.32694669 197.0766194 -173.12165405 189.7306935 -168.82421875 182.42578125 C-163.15858225 172.79259648 -157.6937496 163.05948739 -152.28686523 153.27905273 C-147.09504778 143.89226295 -141.79973295 134.56930203 -136.45654297 125.26806641 C-133.28201029 119.74041019 -130.11453307 114.20871951 -126.94921875 108.67578125 C-126.60966156 108.08246002 -126.27010437 107.48913879 -125.92025757 106.87783813 C-121.13000964 98.50460126 -116.39499945 90.10247437 -111.69921875 81.67578125 C-106.60852847 72.54278047 -101.39215562 63.49197767 -96.09130859 54.47949219 C-91.11870403 46.00018731 -86.32494634 37.42597072 -81.6171875 28.796875 C-78.40149203 22.97178465 -74.97286783 17.62529132 -70.82421875 12.42578125 C-70.16550781 11.52988281 -69.50679687 10.63398437 -68.828125 9.7109375 C-62.12474515 2.06673241 -52.48127147 -2.86572984 -42.82421875 -5.57421875 C-42.20788574 -5.74711426 -41.59155273 -5.92000977 -40.95654297 -6.09814453 C-27.19627871 -9.17033543 -12.18832019 -6.7937663 0 0 Z " fill="#CF1F25" transform="translate(285.82421875,34.57421875)"/>
<path d="M0 0 C8.83788054 5.11365211 12.56080136 12.70107347 15.59130859 22.14282227 C17.18549878 28.69983227 16.97188093 35.44944932 16.9609375 42.15625 C16.96145489 42.92047775 16.96197227 43.68470551 16.96250534 44.47209167 C16.91639306 67.05985148 14.61022018 89.52412069 12.50701904 111.99328613 C12.07645518 116.63449318 11.66157735 121.27704647 11.24712563 125.91971588 C10.74642413 131.51995542 10.23686482 137.11937851 9.7265625 142.71875 C9.6322356 143.76166702 9.53790871 144.80458405 9.44072342 145.87910461 C6.11305103 182.44665955 6.11305103 182.44665955 -2.5625 190 C-8.12207954 193.74667316 -13.92241788 193.77975396 -20.4375 192.9375 C-25.18589602 190.93415096 -28.34737938 187.75073521 -30.6875 183.1875 C-35.79504206 169.07847122 -37.18950284 154.48516002 -38 139.625 C-38.11582487 137.70118064 -38.23288251 135.77743517 -38.35107422 133.85375977 C-38.66569137 128.66281468 -38.96110818 123.47096153 -39.25067139 118.27856445 C-39.44456229 114.81120467 -39.64199316 111.3440612 -39.84033203 107.87695312 C-40.9465153 88.52655782 -40.9465153 88.52655782 -41.43579102 79.55541992 C-41.5252726 77.9273642 -41.5252726 77.9273642 -41.61656189 76.26641846 C-41.72693861 74.25384225 -41.8360021 72.24119331 -41.94337463 70.22845459 C-42.26693894 64.34749965 -42.71719211 58.48628411 -43.21987915 52.61805725 C-43.64409668 47.39273353 -43.74404478 42.1774361 -43.8125 36.9375 C-43.84988281 35.85210937 -43.88726562 34.76671875 -43.92578125 33.6484375 C-44.04015275 22.99918013 -40.89539318 13.45557962 -33.47265625 5.625 C-24.22759508 -2.04077049 -11.17100506 -5.17804946 0 0 Z " fill="#FEFDFD" transform="translate(274.4375,137.0625)"/>
<path d="M0 0 C7.25317968 5.03515989 12.16444542 11.64192426 15 20 C16.28581843 30.08352348 14.31173779 38.75027369 8.53125 47.12890625 C3.17517207 53.20700449 -4.38666489 56.37981108 -12.3125 57.4453125 C-22.08927459 57.79118896 -29.34541639 55.47968807 -36.875 49.25 C-42.52909363 43.89559331 -45.59649237 37.88178082 -46.23828125 30.1171875 C-46.44920093 20.90332777 -44.96552126 14.40591729 -39.8125 6.75 C-28.61781688 -4.19591238 -14.17161107 -8.10147749 0 0 Z " fill="#FEFCFC" transform="translate(276,360)"/>
</svg>
